{"asset":{"version":"2.0","generator":"Blockbench 4.12.5 glTF exporter"},"scenes":[{"nodes":[14],"name":"blockbench_export"}],"scene":0,"nodes":[{"translation":[-0.25,-0.8125,0],"name":"left1","mesh":0},{"translation":[0.25,-0.125,-0.125],"name":"leftleg","children":[0]},{"translation":[0,0.03125,0],"name":"left2","mesh":1},{"translation":[0.4375,1.03125,0.125],"name":"leftarm","children":[2]},{"name":"head","mesh":2},{"translation":[0,1.25,0.125],"name":"head","children":[4]},{"translation":[0,0.03125,0],"name":"right2","mesh":3},{"translation":[-0.4375,1.03125,0.125],"name":"rightarm","children":[6]},{"translation":[0,-0.8125,0],"name":"body","mesh":4},{"translation":[0,-0.125,-0.125],"name":"body","children":[3,5,7,8]},{"translation":[0.28125,-0.8125,0],"name":"right1","mesh":5},{"translation":[-0.28125,-0.125,-0.125],"name":"rightleg","children":[10]},{"name":"all_body","children":[1,9,11]},{"translation":[0,1.375,0],"name":"shader_man","children":[12]},{"children":[13]}],"bufferViews":[{"buffer":0,"byteOffset":0,"byteLength":288,"target":34962,"byteStride":12},{"buffer":0,"byteOffset":288,"byteLength":288,"target":34962,"byteStride":12},{"buffer":0,"byteOffset":576,"byteLength":192,"target":34962,"byteStride":8},{"buffer":0,"byteOffset":768,"byteLength":72,"target":34963},{"buffer":0,"byteOffset":840,"byteLength":288,"target":34962,"byteStride":12},{"buffer":0,"byteOffset":1128,"byteLength":288,"target":34962,"byteStride":12},{"buffer":0,"byteOffset":1416,"byteLength":192,"target":34962,"byteStride":8},{"buffer":0,"byteOffset":1608,"byteLength":72,"target":34963},{"buffer":0,"byteOffset":1680,"byteLength":288,"target":34962,"byteStride":12},{"buffer":0,"byteOffset":1968,"byteLength":288,"target":34962,"byteStride":12},{"buffer":0,"byteOffset":2256,"byteLength":192,"target":34962,"byteStride":8},{"buffer":0,"byteOffset":2448,"byteLength":72,"target":34963},{"buffer":0,"byteOffset":2520,"byteLength":288,"target":34962,"byteStride":12},{"buffer":0,"byteOffset":2808,"byteLength":288,"target":34962,"byteStride":12},{"buffer":0,"byteOffset":3096,"byteLength":192,"target":34962,"byteStride":8},{"buffer":0,"byteOffset":3288,"byteLength":72,"target":34963},{"buffer":0,"byteOffset":3360,"byteLength":288,"target":34962,"byteStride":12},{"buffer":0,"byteOffset":3648,"byteLength":288,"target":34962,"byteStride":12},{"buffer":0,"byteOffset":3936,"byteLength":192,"target":34962,"byteStride":8},{"buffer":0,"byteOffset":4128,"byteLength":72,"target":34963},{"buffer":0,"byteOffset":4200,"byteLength":288,"target":34962,"byteStride":12},{"buffer":0,"byteOffset":4488,"byteLength":288,"target":34962,"byteStride":12},{"buffer":0,"byteOffset":4776,"byteLength":192,"target":34962,"byteStride":8},{"buffer":0,"byteOffset":4968,"byteLength":72,"target":34963},{"buffer":0,"byteOffset":5040,"byteLength":40},{"buffer":0,"byteOffset":5080,"byteLength":160},{"buffer":0,"byteOffset":5240,"byteLength":40},{"buffer":0,"byteOffset":5280,"byteLength":160},{"buffer":0,"byteOffset":5440,"byteLength":36},{"buffer":0,"byteOffset":5476,"byteLength":144},{"buffer":0,"byteOffset":5620,"byteLength":40},{"buffer":0,"byteOffset":5660,"byteLength":160},{"buffer":0,"byteOffset":5820,"byteLength":40},{"buffer":0,"byteOffset":5860,"byteLength":160},{"buffer":0,"byteOffset":6020,"byteLength":24},{"buffer":0,"byteOffset":6044,"byteLength":96},{"buffer":0,"byteOffset":6140,"byteLength":24},{"buffer":0,"byteOffset":6164,"byteLength":96},{"buffer":0,"byteOffset":6260,"byteLength":24},{"buffer":0,"byteOffset":6284,"byteLength":96},{"buffer":0,"byteOffset":6380,"byteLength":24},{"buffer":0,"byteOffset":6404,"byteLength":96},{"buffer":0,"byteOffset":6500,"byteLength":24},{"buffer":0,"byteOffset":6524,"byteLength":96},{"buffer":0,"byteOffset":6620,"byteLength":24},{"buffer":0,"byteOffset":6644,"byteLength":96},{"buffer":0,"byteOffset":6740,"byteLength":20},{"buffer":0,"byteOffset":6760,"byteLength":80},{"buffer":0,"byteOffset":6840,"byteLength":20},{"buffer":0,"byteOffset":6860,"byteLength":80},{"buffer":0,"byteOffset":6940,"byteLength":16},{"buffer":0,"byteOffset":6956,"byteLength":64},{"buffer":0,"byteOffset":7020,"byteLength":16},{"buffer":0,"byteOffset":7036,"byteLength":64},{"buffer":0,"byteOffset":7100,"byteLength":20},{"buffer":0,"byteOffset":7120,"byteLength":80},{"buffer":0,"byteOffset":7200,"byteLength":12},{"buffer":0,"byteOffset":7212,"byteLength":48},{"buffer":0,"byteOffset":7260,"byteLength":12},{"buffer":0,"byteOffset":7272,"byteLength":48},{"buffer":0,"byteOffset":7320,"byteLength":44},{"buffer":0,"byteOffset":7364,"byteLength":176},{"buffer":0,"byteOffset":7540,"byteLength":20},{"buffer":0,"byteOffset":7560,"byteLength":80},{"buffer":0,"byteOffset":7640,"byteLength":44},{"buffer":0,"byteOffset":7684,"byteLength":176},{"buffer":0,"byteOffset":7860,"byteLength":44},{"buffer":0,"byteOffset":7904,"byteLength":176},{"buffer":0,"byteOffset":8080,"byteLength":20},{"buffer":0,"byteOffset":8100,"byteLength":80},{"buffer":0,"byteOffset":8180,"byteLength":28},{"buffer":0,"byteOffset":8208,"byteLength":84},{"buffer":0,"byteOffset":8292,"byteLength":12},{"buffer":0,"byteOffset":8304,"byteLength":48},{"buffer":0,"byteOffset":8352,"byteLength":12},{"buffer":0,"byteOffset":8364,"byteLength":48},{"buffer":0,"byteOffset":8412,"byteLength":12},{"buffer":0,"byteOffset":8424,"byteLength":48},{"buffer":0,"byteOffset":8472,"byteLength":20},{"buffer":0,"byteOffset":8492,"byteLength":80},{"buffer":0,"byteOffset":8572,"byteLength":12},{"buffer":0,"byteOffset":8584,"byteLength":48},{"buffer":0,"byteOffset":8632,"byteLength":16},{"buffer":0,"byteOffset":8648,"byteLength":64},{"buffer":0,"byteOffset":8712,"byteLength":16},{"buffer":0,"byteOffset":8728,"byteLength":64},{"buffer":0,"byteOffset":8792,"byteLength":12},{"buffer":0,"byteOffset":8804,"byteLength":36},{"buffer":0,"byteOffset":8840,"byteLength":16},{"buffer":0,"byteOffset":8856,"byteLength":64},{"buffer":0,"byteOffset":8920,"byteLength":16},{"buffer":0,"byteOffset":8936,"byteLength":64},{"buffer":0,"byteOffset":9000,"byteLength":28},{"buffer":0,"byteOffset":9028,"byteLength":112},{"buffer":0,"byteOffset":9140,"byteLength":12},{"buffer":0,"byteOffset":9152,"byteLength":48},{"buffer":0,"byteOffset":9200,"byteLength":24},{"buffer":0,"byteOffset":9224,"byteLength":96},{"buffer":0,"byteOffset":9320,"byteLength":16},{"buffer":0,"byteOffset":9336,"byteLength":64},{"buffer":0,"byteOffset":9400,"byteLength":24},{"buffer":0,"byteOffset":9424,"byteLength":72}],"buffers":[{"byteLength":9496,"uri":"data:application/octet-stream;base64,"}],"accessors":[{"bufferView":0,"componentType":5126,"count":24,"max":[0.4375,0.8125,0.3125],"min":[0.0625,-0.4375,-0.0625],"type":"VEC3"},{"bufferView":1,"componentType":5126,"count":24,"max":[1,1,1],"min":[-1,-1,-1],"type":"VEC3"},{"bufferView":2,"componentType":5126,"count":24,"max":[0.1873779296875,0.4061279296875],"min":[0.0001220703125,0.2032470703125],"type":"VEC2"},{"bufferView":3,"componentType":5123,"count":36,"max":[23],"min":[0],"type":"SCALAR"},{"bufferView":4,"componentType":5126,"count":24,"max":[0.25,0.1875,0.1875],"min":[0,-1.0625,-0.1875],"type":"VEC3"},{"bufferView":5,"componentType":5126,"count":24,"max":[1,1,1],"min":[-1,-1,-1],"type":"VEC3"},{"bufferView":6,"componentType":5126,"count":24,"max":[0.4842529296875,0.5623779296875],"min":[0.3282470703125,0.3594970703125],"type":"VEC2"},{"bufferView":7,"componentType":5123,"count":36,"max":[23],"min":[0],"type":"SCALAR"},{"bufferView":8,"componentType":5126,"count":24,"max":[0.25,0.5,0.25],"min":[-0.25,0,-0.25],"type":"VEC3"},{"bufferView":9,"componentType":5126,"count":24,"max":[1,1,1],"min":[-1,-1,-1],"type":"VEC3"},{"bufferView":10,"componentType":5126,"count":24,"max":[0.5623779296875,0.1248779296875],"min":[0.3126220703125,0.0001220703125],"type":"VEC2"},{"bufferView":11,"componentType":5123,"count":36,"max":[23],"min":[0],"type":"SCALAR"},{"bufferView":12,"componentType":5126,"count":24,"max":[0,0.1875,0.1875],"min":[-0.25,-1.0625,-0.1875],"type":"VEC3"},{"bufferView":13,"componentType":5126,"count":24,"max":[1,1,1],"min":[-1,-1,-1],"type":"VEC3"},{"bufferView":14,"componentType":5126,"count":24,"max":[0.5311279296875,0.3280029296875],"min":[0.3751220703125,0.1251220703125],"type":"VEC2"},{"bufferView":15,"componentType":5123,"count":36,"max":[23],"min":[0],"type":"SCALAR"},{"bufferView":16,"componentType":5126,"count":24,"max":[0.4375,2.0625,0.3125],"min":[-0.4375,0.8125,-0.0625],"type":"VEC3"},{"bufferView":17,"componentType":5126,"count":24,"max":[1,1,1],"min":[-1,-1,-1],"type":"VEC3"},{"bufferView":18,"componentType":5126,"count":24,"max":[0.3123779296875,0.2030029296875],"min":[0.0001220703125,0.0001220703125],"type":"VEC2"},{"bufferView":19,"componentType":5123,"count":36,"max":[23],"min":[0],"type":"SCALAR"},{"bufferView":20,"componentType":5126,"count":24,"max":[-0.0625,0.8125,0.3125],"min":[-0.4375,-0.4375,-0.0625],"type":"VEC3"},{"bufferView":21,"componentType":5126,"count":24,"max":[1,1,1],"min":[-1,-1,-1],"type":"VEC3"},{"bufferView":22,"componentType":5126,"count":24,"max":[0.3748779296875,0.4061279296875],"min":[0.1876220703125,0.2032470703125],"type":"VEC2"},{"bufferView":23,"componentType":5123,"count":36,"max":[23],"min":[0],"type":"SCALAR"},{"bufferView":24,"componentType":5126,"count":10,"max":[2.25],"min":[0],"type":"SCALAR"},{"bufferView":25,"componentType":5126,"count":10,"max":[0.237685889005661,0,0,1],"min":[-0.237685889005661,0,0,0.9713420867919922],"type":"VEC4"},{"bufferView":26,"componentType":5126,"count":10,"max":[2.25],"min":[0],"type":"SCALAR"},{"bufferView":27,"componentType":5126,"count":10,"max":[0,0,0,1],"min":[-0.19774287939071655,0,0,0.9802539348602295],"type":"VEC4"},{"bufferView":28,"componentType":5126,"count":9,"max":[2],"min":[0],"type":"SCALAR"},{"bufferView":29,"componentType":5126,"count":9,"max":[0,0,0,1],"min":[-0.4226182699203491,0,0,0.9063078165054321],"type":"VEC4"},{"bufferView":30,"componentType":5126,"count":10,"max":[2.25],"min":[0],"type":"SCALAR"},{"bufferView":31,"componentType":5126,"count":10,"max":[0,0,0,1],"min":[-0.4226182699203491,0,0,0.9063078165054321],"type":"VEC4"},{"bufferView":32,"componentType":5126,"count":10,"max":[2.25],"min":[0],"type":"SCALAR"},{"bufferView":33,"componentType":5126,"count":10,"max":[0.237685889005661,0,0,1],"min":[-0.237685889005661,0,0,0.9713420867919922],"type":"VEC4"},{"bufferView":34,"componentType":5126,"count":6,"max":[0.625],"min":[0],"type":"SCALAR"},{"bufferView":35,"componentType":5126,"count":6,"max":[0,0,0,1],"min":[-0.13052618503570557,0,0,0.9914448857307434],"type":"VEC4"},{"bufferView":36,"componentType":5126,"count":6,"max":[0.625],"min":[0],"type":"SCALAR"},{"bufferView":37,"componentType":5126,"count":6,"max":[0.5555702447891235,0,0,1],"min":[-0.36243805289268494,0,0,0.8314695954322815],"type":"VEC4"},{"bufferView":38,"componentType":5126,"count":6,"max":[0.625],"min":[0],"type":"SCALAR"},{"bufferView":39,"componentType":5126,"count":6,"max":[0,0.15179768204689026,0.009949345141649246,1],"min":[-0.06464193761348724,-0.13052618503570557,-0.00560496561229229,0.986245334148407],"type":"VEC4"},{"bufferView":40,"componentType":5126,"count":6,"max":[0.625],"min":[0],"type":"SCALAR"},{"bufferView":41,"componentType":5126,"count":6,"max":[0,0,0,1],"min":[0,0,0,1],"type":"VEC4"},{"bufferView":42,"componentType":5126,"count":6,"max":[0.625],"min":[0],"type":"SCALAR"},{"bufferView":43,"componentType":5126,"count":6,"max":[0.06540312618017197,0,0,1],"min":[0,0,0,0.9978589415550232],"type":"VEC4"},{"bufferView":44,"componentType":5126,"count":6,"max":[0.625],"min":[0],"type":"SCALAR"},{"bufferView":45,"componentType":5126,"count":6,"max":[0.6259234547615051,0,0,1],"min":[-0.237685889005661,0,0,0.7798844575881958],"type":"VEC4"},{"bufferView":46,"componentType":5126,"count":5,"max":[1],"min":[0],"type":"SCALAR"},{"bufferView":47,"componentType":5126,"count":5,"max":[0.9238795042037964,0,0,1],"min":[0,0,0,0.3826834261417389],"type":"VEC4"},{"bufferView":48,"componentType":5126,"count":5,"max":[1],"min":[0],"type":"SCALAR"},{"bufferView":49,"componentType":5126,"count":5,"max":[0.9238795042037964,0,0,1],"min":[0,0,0,0.3826834261417389],"type":"VEC4"},{"bufferView":50,"componentType":5126,"count":4,"max":[1],"min":[0],"type":"SCALAR"},{"bufferView":51,"componentType":5126,"count":4,"max":[0.08715574443340302,0,0,1],"min":[-0.06540312618017197,0,0,0.9961947202682495],"type":"VEC4"},{"bufferView":52,"componentType":5126,"count":4,"max":[0.791670024394989],"min":[0],"type":"SCALAR"},{"bufferView":53,"componentType":5126,"count":4,"max":[0,0.08715574443340302,0,1],"min":[0,-0.13052618503570557,0,0.9914448857307434],"type":"VEC4"},{"bufferView":54,"componentType":5126,"count":5,"max":[1],"min":[0],"type":"SCALAR"},{"bufferView":55,"componentType":5126,"count":5,"max":[0.36166203022003174,0,0.06414642930030823,1],"min":[-0.13024672865867615,-0.042040321975946426,0,0.9300123453140259],"type":"VEC4"},{"bufferView":56,"componentType":5126,"count":3,"max":[0.791670024394989],"min":[0],"type":"SCALAR"},{"bufferView":57,"componentType":5126,"count":3,"max":[0,0,0,1],"min":[0,0,-0.10886687785387039,0.9940563440322876],"type":"VEC4"},{"bufferView":58,"componentType":5126,"count":3,"max":[1],"min":[0],"type":"SCALAR"},{"bufferView":59,"componentType":5126,"count":3,"max":[0.08715574443340302,0,0,1],"min":[0,0,0,0.9961947202682495],"type":"VEC4"},{"bufferView":60,"componentType":5126,"count":11,"max":[1],"min":[0],"type":"SCALAR"},{"bufferView":61,"componentType":5126,"count":11,"max":[0.06526309251785278,0.004277569241821766,0.12947258353233337,1],"min":[-0.042690008878707886,-0.014179553836584091,0,0.9905621409416199],"type":"VEC4"},{"bufferView":62,"componentType":5126,"count":5,"max":[1],"min":[0],"type":"SCALAR"},{"bufferView":63,"componentType":5126,"count":5,"max":[0.12678557634353638,0.031024234369397163,0.3826834261417389,1],"min":[0,0,0,0.9238795042037964],"type":"VEC4"},{"bufferView":64,"componentType":5126,"count":11,"max":[1],"min":[0],"type":"SCALAR"},{"bufferView":65,"componentType":5126,"count":11,"max":[0.1949046403169632,0,0,1],"min":[0,-0.01886395551264286,-0.37533026933670044,0.9061274528503418],"type":"VEC4"},{"bufferView":66,"componentType":5126,"count":11,"max":[1],"min":[0],"type":"SCALAR"},{"bufferView":67,"componentType":5126,"count":11,"max":[0,0.007596123497933149,0,1],"min":[-0.15212339162826538,0,-0.17162717878818512,0.9733460545539856],"type":"VEC4"},{"bufferView":68,"componentType":5126,"count":5,"max":[1],"min":[0],"type":"SCALAR"},{"bufferView":69,"componentType":5126,"count":5,"max":[0,0,0,1],"min":[-0.751839816570282,0,0,0.659345805644989],"type":"VEC4"},{"bufferView":70,"componentType":5126,"count":7,"max":[1.5],"min":[0],"type":"SCALAR"},{"bufferView":71,"componentType":5126,"count":7,"max":[0,2,0],"min":[0,0.6875,0],"type":"VEC3"},{"bufferView":72,"componentType":5126,"count":3,"max":[1.5],"min":[0],"type":"SCALAR"},{"bufferView":73,"componentType":5126,"count":3,"max":[0,0,0,1],"min":[-0.3214394748210907,0,0,0.9469301104545593],"type":"VEC4"},{"bufferView":74,"componentType":5126,"count":3,"max":[1.5],"min":[0],"type":"SCALAR"},{"bufferView":75,"componentType":5126,"count":3,"max":[0.9655687212944031,0.09544650465250015,0,1],"min":[0,0,-0.052363745868206024,0.2362731695175171],"type":"VEC4"},{"bufferView":76,"componentType":5126,"count":3,"max":[1.5],"min":[0],"type":"SCALAR"},{"bufferView":77,"componentType":5126,"count":3,"max":[0.9753667712211609,0,0.00944096315652132,1],"min":[0,-0.04258543252944946,0,0.21623361110687256],"type":"VEC4"},{"bufferView":78,"componentType":5126,"count":5,"max":[1.5],"min":[0],"type":"SCALAR"},{"bufferView":79,"componentType":5126,"count":5,"max":[0,0,0,1],"min":[-0.9600498676300049,0,0,-1],"type":"VEC4"},{"bufferView":80,"componentType":5126,"count":3,"max":[0.5],"min":[0],"type":"SCALAR"},{"bufferView":81,"componentType":5126,"count":3,"max":[0.3826834261417389,0.20561565458774567,0,1],"min":[0,0,-0.4964001178741455,0.7791920900344849],"type":"VEC4"},{"bufferView":82,"componentType":5126,"count":4,"max":[0.75],"min":[0],"type":"SCALAR"},{"bufferView":83,"componentType":5126,"count":4,"max":[0.7769168019294739,0,0,1],"min":[0,-0.06797140836715698,-0.08312191069126129,0.6235416531562805],"type":"VEC4"},{"bufferView":84,"componentType":5126,"count":4,"max":[1],"min":[0],"type":"SCALAR"},{"bufferView":85,"componentType":5126,"count":4,"max":[0.7071067690849304,0,0,1],"min":[0,0,0,0.7071067690849304],"type":"VEC4"},{"bufferView":86,"componentType":5126,"count":3,"max":[1],"min":[0],"type":"SCALAR"},{"bufferView":87,"componentType":5126,"count":3,"max":[0,0,0],"min":[0,-1.1875,0],"type":"VEC3"},{"bufferView":88,"componentType":5126,"count":4,"max":[0.75],"min":[0],"type":"SCALAR"},{"bufferView":89,"componentType":5126,"count":4,"max":[0.2798290252685547,0,0,1],"min":[0,0,0,0.9600498676300049],"type":"VEC4"},{"bufferView":90,"componentType":5126,"count":4,"max":[0.75],"min":[0],"type":"SCALAR"},{"bufferView":91,"componentType":5126,"count":4,"max":[0,0,0,1],"min":[-0.44228869676589966,0,0,0.8968727588653564],"type":"VEC4"},{"bufferView":92,"componentType":5126,"count":7,"max":[1],"min":[0],"type":"SCALAR"},{"bufferView":93,"componentType":5126,"count":7,"max":[0.9600498676300049,0,0,1],"min":[-0.30070579051971436,0,0,0.2798290252685547],"type":"VEC4"},{"bufferView":94,"componentType":5126,"count":3,"max":[1],"min":[0],"type":"SCALAR"},{"bufferView":95,"componentType":5126,"count":3,"max":[0,0.129409521818161,0.017037086188793182,1],"min":[-0.129409521818161,0,0,0.9829629063606262],"type":"VEC4"},{"bufferView":96,"componentType":5126,"count":6,"max":[0.875],"min":[0],"type":"SCALAR"},{"bufferView":97,"componentType":5126,"count":6,"max":[0.9600498676300049,0,0,1],"min":[-0.4226182699203491,0,0,0.2798290252685547],"type":"VEC4"},{"bufferView":98,"componentType":5126,"count":4,"max":[0.75],"min":[0],"type":"SCALAR"},{"bufferView":99,"componentType":5126,"count":4,"max":[0,0,0,1],"min":[-0.2798290252685547,0,0,0.9600498676300049],"type":"VEC4"},{"bufferView":100,"componentType":5126,"count":6,"max":[0.75],"min":[0],"type":"SCALAR"},{"bufferView":101,"componentType":5126,"count":6,"max":[0,0,0],"min":[0,-3.25,0],"type":"VEC3"}],"materials":[{"pbrMetallicRoughness":{"metallicFactor":0,"roughnessFactor":1,"baseColorTexture":{"index":0}},"alphaMode":"MASK","alphaCutoff":0.05,"doubleSided":true}],"textures":[{"sampler":0,"source":0,"name":"shadowkhan.png"}],"samplers":[{"magFilter":9728,"minFilter":9728,"wrapS":33071,"wrapT":33071}],"images":[{"mimeType":"image/png","uri":"data:image/png;base64,"}],"meshes":[{"primitives":[{"mode":4,"attributes":{"POSITION":0,"NORMAL":1,"TEXCOORD_0":2},"indices":3,"material":0}]},{"primitives":[{"mode":4,"attributes":{"POSITION":4,"NORMAL":5,"TEXCOORD_0":6},"indices":7,"material":0}]},{"primitives":[{"mode":4,"attributes":{"POSITION":8,"NORMAL":9,"TEXCOORD_0":10},"indices":11,"material":0}]},{"primitives":[{"mode":4,"attributes":{"POSITION":12,"NORMAL":13,"TEXCOORD_0":14},"indices":15,"material":0}]},{"primitives":[{"mode":4,"attributes":{"POSITION":16,"NORMAL":17,"TEXCOORD_0":18},"indices":19,"material":0}]},{"primitives":[{"mode":4,"attributes":{"POSITION":20,"NORMAL":21,"TEXCOORD_0":22},"indices":23,"material":0}]}],"animations":[{"name":"shadowkhanWalk","samplers":[{"input":24,"output":25,"interpolation":"LINEAR"},{"input":26,"output":27,"interpolation":"LINEAR"},{"input":28,"output":29,"interpolation":"LINEAR"},{"input":30,"output":31,"interpolation":"LINEAR"},{"input":32,"output":33,"interpolation":"LINEAR"}],"channels":[{"sampler":0,"target":{"node":1,"path":"rotation"}},{"sampler":1,"target":{"node":9,"path":"rotation"}},{"sampler":2,"target":{"node":3,"path":"rotation"}},{"sampler":3,"target":{"node":7,"path":"rotation"}},{"sampler":4,"target":{"node":11,"path":"rotation"}}]},{"name":"ShadowkhanRangeAttack","samplers":[{"input":34,"output":35,"interpolation":"LINEAR"},{"input":36,"output":37,"interpolation":"LINEAR"},{"input":38,"output":39,"interpolation":"LINEAR"},{"input":40,"output":41,"interpolation":"LINEAR"},{"input":42,"output":43,"interpolation":"LINEAR"},{"input":44,"output":45,"interpolation":"LINEAR"}],"channels":[{"sampler":0,"target":{"node":1,"path":"rotation"}},{"sampler":1,"target":{"node":3,"path":"rotation"}},{"sampler":2,"target":{"node":9,"path":"rotation"}},{"sampler":3,"target":{"node":5,"path":"rotation"}},{"sampler":4,"target":{"node":11,"path":"rotation"}},{"sampler":5,"target":{"node":7,"path":"rotation"}}]},{"name":"ShadowkhanAttack","samplers":[{"input":46,"output":47,"interpolation":"LINEAR"},{"input":48,"output":49,"interpolation":"LINEAR"}],"channels":[{"sampler":0,"target":{"node":3,"path":"rotation"}},{"sampler":1,"target":{"node":7,"path":"rotation"}}]},{"name":"shadowkhanIdle","samplers":[{"input":50,"output":51,"interpolation":"LINEAR"},{"input":52,"output":53,"interpolation":"LINEAR"},{"input":54,"output":55,"interpolation":"LINEAR"},{"input":56,"output":57,"interpolation":"LINEAR"},{"input":58,"output":59,"interpolation":"LINEAR"}],"channels":[{"sampler":0,"target":{"node":1,"path":"rotation"}},{"sampler":1,"target":{"node":9,"path":"rotation"}},{"sampler":2,"target":{"node":3,"path":"rotation"}},{"sampler":3,"target":{"node":7,"path":"rotation"}},{"sampler":4,"target":{"node":11,"path":"rotation"}}]},{"name":"shadowkhanFly","samplers":[{"input":60,"output":61,"interpolation":"LINEAR"},{"input":62,"output":63,"interpolation":"LINEAR"},{"input":64,"output":65,"interpolation":"LINEAR"},{"input":66,"output":67,"interpolation":"LINEAR"},{"input":68,"output":69,"interpolation":"LINEAR"}],"channels":[{"sampler":0,"target":{"node":1,"path":"rotation"}},{"sampler":1,"target":{"node":3,"path":"rotation"}},{"sampler":2,"target":{"node":7,"path":"rotation"}},{"sampler":3,"target":{"node":11,"path":"rotation"}},{"sampler":4,"target":{"node":12,"path":"rotation"}}]},{"name":"shadowkhanRoll","samplers":[{"input":70,"output":71,"interpolation":"LINEAR"},{"input":72,"output":73,"interpolation":"LINEAR"},{"input":74,"output":75,"interpolation":"LINEAR"},{"input":76,"output":77,"interpolation":"LINEAR"},{"input":78,"output":79,"interpolation":"LINEAR"}],"channels":[{"sampler":0,"target":{"node":13,"path":"translation"}},{"sampler":1,"target":{"node":9,"path":"rotation"}},{"sampler":2,"target":{"node":3,"path":"rotation"}},{"sampler":3,"target":{"node":7,"path":"rotation"}},{"sampler":4,"target":{"node":12,"path":"rotation"}}]},{"name":"shadowkhanDeath","samplers":[{"input":80,"output":81,"interpolation":"LINEAR"},{"input":82,"output":83,"interpolation":"LINEAR"},{"input":84,"output":85,"interpolation":"LINEAR"},{"input":86,"output":87,"interpolation":"LINEAR"}],"channels":[{"sampler":0,"target":{"node":3,"path":"rotation"}},{"sampler":1,"target":{"node":7,"path":"rotation"}},{"sampler":2,"target":{"node":12,"path":"rotation"}},{"sampler":3,"target":{"node":12,"path":"translation"}}]},{"name":"shadowkhanSpawn","samplers":[{"input":88,"output":89,"interpolation":"LINEAR"},{"input":90,"output":91,"interpolation":"LINEAR"},{"input":92,"output":93,"interpolation":"LINEAR"},{"input":94,"output":95,"interpolation":"LINEAR"},{"input":96,"output":97,"interpolation":"LINEAR"},{"input":98,"output":99,"interpolation":"LINEAR"},{"input":100,"output":101,"interpolation":"LINEAR"}],"channels":[{"sampler":0,"target":{"node":1,"path":"rotation"}},{"sampler":1,"target":{"node":9,"path":"rotation"}},{"sampler":2,"target":{"node":3,"path":"rotation"}},{"sampler":3,"target":{"node":5,"path":"rotation"}},{"sampler":4,"target":{"node":7,"path":"rotation"}},{"sampler":5,"target":{"node":11,"path":"rotation"}},{"sampler":6,"target":{"node":12,"path":"translation"}}]}]}